<svg xmlns="http://www.w3.org/2000/svg" width="140" height="40" viewBox="0 0 140 40">
  <rect width="140" height="40" rx="4" fill="#dc3545"/>
  <g fill="white">
    <path d="M10 10 L10 30 L14 30 L14 22 L18 22 L18 18 L14 18 L14 14 L20 14 L20 10 Z" opacity="0.3"/>
    <path d="M12 16 C12 14 14 12 16 12 C18 12 20 14 20 16 C20 18 18 20 16 20 C14 20 12 18 12 16 Z M16 18 C17 18 18 17 18 16 C18 15 17 14 16 14 C15 14 14 15 14 16 C14 17 15 18 16 18 Z"/>
    <rect x="15" y="20" width="2" height="8"/>
  </g>
  <text x="28" y="25" font-family="Arial, sans-serif" font-size="12" font-weight="600" fill="white">PIPEDA Certified</text>
</svg>