<svg xmlns="http://www.w3.org/2000/svg" width="120" height="40" viewBox="0 0 120 40">
  <rect width="120" height="40" rx="4" fill="#28a745"/>
  <g fill="white">
    <path d="M15 10h-4a3 3 0 0 0-3 3v4h10v-4a3 3 0 0 0-3-3zm-5 3a2 2 0 0 1 2-2h2a2 2 0 0 1 2 2v1h-6v-1z"/>
    <rect x="8" y="17" width="10" height="10" rx="1"/>
    <circle cx="13" cy="22" r="1"/>
    <rect x="12" y="22" width="2" height="3" rx="0.5"/>
  </g>
  <text x="26" y="25" font-family="Arial, sans-serif" font-size="14" font-weight="600" fill="white">SSL Secure</text>
</svg>